#!OML:ASF I:\Actors\actors\Patient Classification 1\Patient 1\Session 1\Subject1.ASF
:FULLY-SPECIFIED
:DEGREES
321
root 0.69637 17.4603 7.00664 5.32922 -0.761566 -2.6749
lowerback 1.74569 -1.49242 6.09453
upperback -9.65575 -1.53455 0.270506
thorax -11.5308 -1.2967 -2.92784
lowerneck -10.2208 -0.933057 0.403011
upperneck 24.9254 -2.62658 4.57823
head 9.61041 -0.700194 1.22203
rclavicle 1.81391e-014 -2.60408e-014
rhumerus -52.8444 37.4616 -114.165
rradius 88.2522
rwrist -26.7845
rhand 20.8599 -54.2998
rfingers 7.12502
rthumb 45.3353 -77.666
lclavicle 1.81391e-014 -2.60408e-014
lhumerus -55.3097 -30.8612 109.463
lradius 84.9412
lwrist 29.8475
lhand -6.53356 13.3178
lfingers 7.12502
lthumb 19.3194 42.3781
rfemur -4.70281 17.0189 13.5684
rtibia 4.67516
rfoot -10.2438 -18.3043
rtoes -5.46128
lfemur 2.30854 -37.6045 -24.2622
ltibia 1.46276
lfoot -14.7248 41.6252
ltoes 8.75872
322
root 0.703662 17.4598 7.01562 5.34063 -0.84904 -2.72705
lowerback 2.23948 -1.42864 6.17796
upperback -10.0534 -1.40482 0.151895
thorax -12.2947 -1.27758 -3.10109
lowerneck -9.95551 -1.03121 0.405779
upperneck 25.254 -2.81303 4.70334
head 9.68374 -0.771236 1.24811
rclavicle 2.3438e-014 3.65267e-015
rhumerus -53.6457 37.0745 -114.682
rradius 88.2822
rwrist -26.7744
rhand 20.8717 -54.3224
rfingers 7.12502
rthumb 45.3462 -77.6842
lclavicle 2.3438e-014 3.65267e-015
lhumerus -56.2767 -30.9555 110.012
lradius 85.0546
lwrist 30.0068
lhand -6.40651 13.6814
lfingers 7.12502
lthumb 19.4415 42.7294
rfemur -4.597 17.1395 13.6294
rtibia 4.50111
rfoot -10.1705 -18.3281
rtoes -5.51426
lfemur 2.40347 -37.624 -24.2895
ltibia 1.40624
lfoot -14.8179 41.6847
ltoes 9.11444
323
root 0.707059 17.4613 7.02471 5.3539 -0.904561 -2.76526
lowerback 2.35862 -1.3979 6.12497
upperback -10.1832 -1.35751 0.128956
thorax -12.5143 -1.25972 -3.09816
lowerneck -9.83087 -1.07941 0.169046
upperneck 25.2843 -2.90462 4.98039
head 9.68042 -0.807434 1.37572
rclavicle 1.36633e-014 -1.68843e-014
rhumerus -53.9915 37.0569 -114.876
rradius 88.2777
rwrist -26.6533
rhand 20.7201 -54.0667
rfingers 7.12502
rthumb 45.2053 -77.4849
lclavicle 1.36633e-014 -1.68843e-014
lhumerus -56.6415 -31.0176 110.273
lradius 85.1166
lwrist 30.119
lhand -6.38855 13.8544
lfingers 7.12502
lthumb 19.4588 42.9007
rfemur -4.4828 17.2962 13.6969
rtibia 4.3398
rfoot -10.1323 -18.4086
rtoes -5.62951
lfemur 2.52421 -37.5781 -24.3018
ltibia 1.27383
lfoot -14.7556 41.7037
ltoes 9.14743
324
root 0.706907 17.463 7.032 5.3701 -0.967202 -2.77732
lowerback 2.10584 -1.37227 5.92902
upperback -10.0148 -1.3609 0.147103
thorax -12.1483 -1.22801 -2.97689
lowerneck -9.98933 -1.10342 0.0336151
upperneck 25.0825 -2.94187 5.13641
head 9.64424 -0.821768 1.44637
rclavicle 1.16444e-014 -2.21769e-015
rhumerus -53.7195 37.3364 -114.7
rradius 88.2734
rwrist -26.6165
rhand 20.5598 -53.9325
rfingers 7.12502
rthumb 45.0562 -77.4099
lclavicle 1.16444e-014 -2.21769e-015
lhumerus -56.3308 -31.1769 110.169
lradius 85.1204
lwrist 30.1553
lhand -6.41819 13.8206
lfingers 7.12502
lthumb 19.4303 42.8698
rfemur -4.40033 17.5017 13.7429
rtibia 4.2269
rfoot -10.1367 -18.5019
rtoes -5.54392
lfemur 2.6529 -37.5775 -24.334
ltibia 1.13412
lfoot -14.7406 41.7867
ltoes 9.28743
325
root 0.703818 17.464 7.03773 5.38728 -1.05165 -2.77932
lowerback 1.47949 -1.34829 5.60304
upperback -9.55206 -1.40306 0.222346
thorax -11.2096 -1.18115 -2.73005
lowerneck -10.4163 -1.12181 0.0524375
upperneck 24.6599 -2.94787 5.11549
head 9.57563 -0.826105 1.42909
rclavicle 1.40019e-014 9.74045e-015
rhumerus -52.7922 37.866 -114.069
rradius 88.3092
rwrist -27.0166
rhand 20.5862 -54.4574
rfingers 7.12502
rthumb 45.0808 -77.9251
lclavicle 1.40019e-014 9.74045e-015
lhumerus -55.3484 -31.3794 109.736
lradius 85.0801
lwrist 30.1626
lhand -6.56664 13.7658
lfingers 7.12502
lthumb 19.2876 42.8293
rfemur -4.3644 17.7182 13.7805
rtibia 4.18402
rfoot -10.1875 -18.5714
rtoes -5.31874
lfemur 2.73174 -37.5523 -24.3523
ltibia 1.0501
lfoot -14.6576 41.8688
ltoes 9.14483
326
root 0.698251 17.4655 7.04347 5.40231 -1.13094 -2.80325
lowerback 2.1491 -1.26014 5.61135
upperback -10.0303 -1.23939 0.0768718
thorax -12.1661 -1.14373 -2.89119
lowerneck -9.96715 -1.26151 0.102278
upperneck 24.8136 -3.18431 5.21575
head 9.55304 -0.925623 1.43223
rclavicle -2.21024e-014 4.07509e-015
rhumerus -53.687 37.2265 -114.639
rradius 88.4294
rwrist -27.0858
rhand 20.5638 -54.693
rfingers 7.12502
rthumb 45.06 -78.1689
lclavicle -2.21024e-014 4.07509e-015
lhumerus -56.4288 -31.2627 110.232
lradius 85.2178
lwrist 30.0543
lhand -6.5174 13.8005
lfingers 7.12502
lthumb 19.3349 42.8593
rfemur -4.34987 17.8443 13.855
rtibia 4.1821
rfoot -10.2051 -18.5797
rtoes -5.40963
lfemur 2.78528 -37.477 -24.3253
ltibia 0.985187
lfoot -14.4778 41.9299
ltoes 8.80632
